<svg width="21" height="19" viewBox="0 0 21 19" fill="none" xmlns="http://www.w3.org/2000/svg">
<path d="M16.8271 10.2289L13.1629 13.1564C13.0282 13.2641 12.8608 13.3228 12.6883 13.3228H8.27745C7.99076 13.3228 7.75835 13.0904 7.75835 12.8037Lnan nanCnan nan -nan -nan -nan -nanL-nan -nanC-nan -nan nan nan nan nanL7.75835 12.8037C7.75835 12.517 7.99076 12.2846 8.27745 12.2846H11.983C12.077 12.2845 12.1692 12.259 12.2499 12.2107C12.3305 12.1625 12.3965 12.0933 12.4409 12.0105C12.4852 11.9277 12.5063 11.8345 12.5018 11.7407C12.4973 11.6469 12.4674 11.5561 12.4154 11.4779L11.4925 10.095C11.3032 9.81034 11.0463 9.5769 10.7447 9.4155C10.4431 9.25409 10.1063 9.16975 9.76416 9.16997H1.52268C1.24704 9.16997 0.982699 9.27935 0.787796 9.47405C0.592894 9.66875 0.483398 9.93282 0.483398 10.2082V16.4374C0.483398 16.9881 0.702389 17.5162 1.09219 17.9056C1.482 18.295 2.01069 18.5138 2.56196 18.5138H12.5796C13.024 18.5139 13.4633 18.4191 13.868 18.2357C14.2727 18.0524 14.6335 17.7847 14.9263 17.4507L20.2211 11.4047C20.7189 10.8363 20.4768 9.94438 19.7599 9.70568C19.2662 9.54128 18.7392 9.50304 18.2269 9.59444C17.7145 9.68584 17.2333 9.90398 16.8271 10.2289Z" fill="#B49EB9"/>
<path d="M18.4723 3.44028C18.4723 4.1774 18.1824 4.84497 17.7136 5.32773L13.3815 10.0132C13.3313 10.0675 13.2455 10.0675 13.1953 10.0132L8.86315 5.32669C8.39443 4.84497 8.10448 4.17636 8.10448 3.43924C8.10448 2.70212 8.39443 2.03559 8.86315 1.55179C9.10039 1.305 9.38502 1.10857 9.70003 0.974242C10.015 0.839915 10.3539 0.770455 10.6964 0.77002C10.6964 0.77002 11.9287 0.767051 13.196 2.01218C13.247 2.06227 13.3298 2.06227 13.3808 2.01218C14.6481 0.767051 15.8804 0.77002 15.8804 0.77002C16.223 0.770411 16.562 0.839952 16.877 0.974471C17.192 1.10899 17.4766 1.30571 17.7136 1.55282C18.1824 2.03559 18.4723 2.70315 18.4723 3.44028Z" fill="#B49EB9"/>
</svg>
