<svg width="44" height="44" viewBox="0 0 44 44" fill="none" xmlns="http://www.w3.org/2000/svg">
<path fill-rule="evenodd" clip-rule="evenodd" d="M21.9994 7.3291C24.7319 7.36028 27.2005 8.03188 29.4052 9.34389C31.5835 10.6297 33.3956 12.4528 34.6681 14.6389C35.9721 16.8568 36.6396 19.3404 36.6707 22.0896C36.5933 25.8512 35.4068 29.0639 33.1114 31.7278C30.816 34.3918 27.8761 36.0398 24.8328 36.6716V26.1254H27.71L28.3607 21.981H24.0039V19.2665C23.9797 18.7038 24.1577 18.1509 24.5056 17.708C24.854 17.2638 25.4676 17.0304 26.3463 17.0077H28.9772V13.3772C28.9394 13.3651 28.5812 13.3171 27.9026 13.2331C27.133 13.1431 26.359 13.095 25.5841 13.089C23.8303 13.0971 22.4433 13.5919 21.423 14.5732C20.4027 15.5543 19.8815 16.9736 19.8595 18.8313V21.981H16.5439V26.1254H19.8595V36.6716C16.1227 36.0399 13.1828 34.3918 10.8874 31.7279C8.59194 29.064 7.40557 25.8512 7.32812 22.0896C7.35911 19.3403 8.02664 16.8567 9.33071 14.6389C10.6032 12.4528 12.4153 10.6296 14.5936 9.34383C16.7982 8.0321 19.2668 7.36056 21.9994 7.3291Z" fill="white"/>
</svg>
