<svg width="45" height="44" viewBox="0 0 45 44" fill="none" xmlns="http://www.w3.org/2000/svg">
<path d="M25.1398 22.0045C25.1398 23.5554 23.8825 24.8126 22.3316 24.8126C20.7807 24.8126 19.5234 23.5554 19.5234 22.0045C19.5234 20.4535 20.7807 19.1963 22.3316 19.1963C23.8825 19.1963 25.1398 20.4535 25.1398 22.0045Z" fill="white"/>
<path d="M28.8882 17.0328C28.7531 16.6668 28.5378 16.3358 28.258 16.0641C27.9863 15.7842 27.6552 15.5689 27.2893 15.4339C26.9924 15.3186 26.5465 15.1814 25.7251 15.144C24.8366 15.1035 24.5702 15.0947 22.3208 15.0947C20.0712 15.0947 19.8048 15.1033 18.9165 15.1438C18.0951 15.1814 17.6489 15.3186 17.3523 15.4339C16.9863 15.5688 16.6553 15.7842 16.3836 16.0641C16.1038 16.3358 15.8884 16.6668 15.7532 17.0328C15.638 17.3296 15.5007 17.7758 15.4633 18.5972C15.4228 19.4855 15.4141 19.7518 15.4141 22.0015C15.4141 24.2509 15.4228 24.5172 15.4633 25.4058C15.5007 26.2271 15.638 26.6731 15.7532 26.9699C15.8883 27.3358 16.1036 27.6669 16.3834 27.9386C16.6551 28.2185 16.9861 28.4338 17.3521 28.5688C17.649 28.6843 18.0951 28.8216 18.9165 28.8589C19.8048 28.8994 20.0709 28.908 22.3206 28.908C24.5704 28.908 24.8368 28.8994 25.7249 28.8589C26.5462 28.8216 26.9925 28.6843 27.2893 28.5688C27.6526 28.4287 27.9826 28.214 28.258 27.9386C28.5333 27.6632 28.748 27.3333 28.8882 26.9699C29.0034 26.6731 29.1407 26.2272 29.1783 25.4058C29.2188 24.5172 29.2273 24.2509 29.2273 22.0015C29.2273 19.7518 29.2188 19.4855 29.1783 18.5972C29.1409 17.7758 29.0036 17.3296 28.8882 17.0328ZM22.3208 26.3273C19.9315 26.3273 17.9946 24.3905 17.9946 22.0012C17.9946 19.6119 19.9315 17.6753 22.3208 17.6753C24.7099 17.6753 26.6468 19.6119 26.6468 22.0012C26.6468 24.3905 24.7099 26.3273 22.3208 26.3273ZM26.8178 18.5152C26.2595 18.5152 25.8069 18.0625 25.8069 17.5043C25.8069 16.946 26.2595 16.4933 26.8178 16.4933C27.3761 16.4933 27.8288 16.9459 27.8288 17.5042C27.8286 18.0625 27.3761 18.5152 26.8178 18.5152Z" fill="white"/>
<path d="M22.3275 7.3291C14.2261 7.3291 7.65625 13.8989 7.65625 22.0004C7.65625 30.1019 14.2261 36.6717 22.3275 36.6717C30.429 36.6717 36.9988 30.1019 36.9988 22.0004C36.9988 13.8989 30.429 7.3291 22.3275 7.3291ZM30.7012 25.4736C30.6605 26.3705 30.5179 26.9828 30.3097 27.5187C30.0933 28.0783 29.7623 28.5866 29.338 29.0109C28.9137 29.4351 28.4055 29.7661 27.8458 29.9825C27.3101 30.1908 26.6976 30.3331 25.801 30.3741C24.9027 30.4151 24.6157 30.4249 22.3278 30.4249C20.0396 30.4249 19.7528 30.4151 18.8542 30.3741C17.9577 30.3331 17.3452 30.1908 16.8094 29.9825C16.2472 29.7711 15.738 29.4394 15.3172 29.0107C14.8887 28.59 14.5571 28.0808 14.3456 27.5187C14.1374 26.983 13.9948 26.3705 13.9541 25.4739C13.9126 24.5753 13.903 24.2883 13.903 22.0004C13.903 19.7125 13.9126 19.4255 13.9538 18.5271C13.9945 17.6303 14.1369 17.0181 14.3452 16.4821C14.5567 15.9199 14.8884 15.4107 15.3171 14.99C15.7378 14.5614 16.2471 14.2297 16.8092 14.0182C17.3452 13.81 17.9574 13.6677 18.8543 13.6267C19.7526 13.5857 20.0396 13.5759 22.3275 13.5759C24.6155 13.5759 24.9025 13.5857 25.8008 13.6269C26.6976 13.6677 27.3099 13.81 27.8458 14.018C28.4081 14.2296 28.9173 14.5613 29.3382 14.99C29.7667 15.4108 30.0983 15.92 30.3097 16.4821C30.5181 17.0181 30.6605 17.6303 30.7015 18.5271C30.7424 19.4255 30.7521 19.7125 30.7521 22.0004C30.7521 24.2883 30.7424 24.5753 30.7012 25.4736Z" fill="white"/>
</svg>
