<svg width="44" height="44" viewBox="0 0 44 44" fill="none" xmlns="http://www.w3.org/2000/svg">
<path d="M21.9994 7.3291C13.8979 7.3291 7.32812 13.8989 7.32812 22.0004C7.32812 30.1019 13.8979 36.6717 21.9994 36.6717C30.1009 36.6717 36.6707 30.1019 36.6707 22.0004C36.6707 13.8989 30.1009 7.3291 21.9994 7.3291ZM17.7361 29.508H14.163V18.7582H17.7361L17.7361 29.508ZM15.9496 17.2902H15.9264C14.7273 17.2902 13.9519 16.4648 13.9519 15.4333C13.9519 14.3784 14.7511 13.5759 15.9734 13.5759C17.1957 13.5759 17.9479 14.3784 17.9712 15.4333C17.9712 16.4648 17.1957 17.2902 15.9496 17.2902ZM30.6201 29.508H27.0474V23.757C27.0474 22.3118 26.5301 21.3261 25.2372 21.3261C24.2502 21.3261 23.6624 21.991 23.404 22.6328C23.3095 22.8625 23.2865 23.1835 23.2865 23.5048V29.508H19.7136C19.7136 29.508 19.7604 19.7666 19.7136 18.7582H23.2865V20.2802C23.7613 19.5478 24.6109 18.5059 26.5066 18.5059C28.8574 18.5059 30.6201 20.0422 30.6201 23.344V29.508Z" fill="white"/>
</svg>
