<svg width="44" height="44" viewBox="0 0 44 44" fill="none" xmlns="http://www.w3.org/2000/svg">
<path d="M19.9194 24.4202L24.0799 22.0064L19.9194 19.5807V24.4202Z" fill="white"/>
<path d="M22 7C19.0333 7 16.1332 7.87973 13.6665 9.52796C11.1997 11.1762 9.27713 13.5189 8.14181 16.2597C7.0065 19.0006 6.70945 22.0166 7.28823 24.9263C7.86701 27.8361 9.29562 30.5088 11.3934 32.6066C13.4912 34.7044 16.1639 36.133 19.0736 36.7118C21.9834 37.2906 24.9994 36.9935 27.7402 35.8582C30.4811 34.7229 32.8238 32.8003 34.472 30.3335C36.1203 27.8668 37 24.9667 37 22C37 18.0217 35.4196 14.2064 32.6066 11.3934C29.7936 8.58035 25.9782 7 22 7ZM29.8947 24.6546C29.895 25.0469 29.8179 25.4354 29.668 25.798C29.518 26.1605 29.2981 26.4899 29.0208 26.7674C28.7435 27.0449 28.4142 27.2651 28.0518 27.4153C27.6893 27.5655 27.3009 27.6428 26.9086 27.6428H17.0914C16.6991 27.6428 16.3107 27.5655 15.9482 27.4153C15.5858 27.2651 15.2565 27.0449 14.9792 26.7674C14.7019 26.4899 14.482 26.1605 14.332 25.798C14.1821 25.4354 14.105 25.0469 14.1053 24.6546V19.3454C14.105 18.9531 14.1821 18.5646 14.332 18.202C14.482 17.8395 14.7019 17.5101 14.9792 17.2326C15.2565 16.9551 15.5858 16.7349 15.9482 16.5847C16.3107 16.4345 16.6991 16.3572 17.0914 16.3572H26.9086C27.3009 16.3572 27.6893 16.4345 28.0518 16.5847C28.4142 16.7349 28.7435 16.9551 29.0208 17.2326C29.2981 17.5101 29.518 17.8395 29.668 18.202C29.8179 18.5646 29.895 18.9531 29.8947 19.3454V24.6546Z" fill="white"/>
</svg>
